<svg id="mermaid-1786202300944" width="100%" xmlns="http://www.w3.org/2000/svg" style="max-width: 100%; height: auto;" viewBox="-50 -10 3541 1996" role="graphics-document document" aria-roledescription="sequence"><rect x="1165.5" y="1385" fill="rgb(248, 248, 255)" width="1763.5" height="313" class="rect"></rect><rect x="1165.5" y="1114" fill="rgb(255, 250, 240)" width="1534.5" height="261" class="rect"></rect><rect x="54" y="647" fill="rgb(245, 255, 250)" width="2418" height="457" class="rect"></rect><rect x="1165.5" y="472" fill="rgb(255, 245, 238)" width="817" height="165" class="rect"></rect><rect x="1165.5" y="297" fill="rgb(240, 248, 255)" width="535" height="165" class="rect"></rect><g><rect x="3036" y="1910" fill="#eaeaea" stroke="#666" width="405" height="65" name="FileLog" rx="3" ry="3" class="actor actor-bottom"></rect><text x="3238.5" y="1942.5" dominant-baseline="central" alignment-baseline="central" class="actor" style="text-anchor: middle; font-size: 16px; font-weight: 400; font-family: monospace;"><tspan x="3238.5" dy="0">RotatingFileHandler (logs/app_trace.log)</tspan></text></g><g><rect x="2802" y="1910" fill="#eaeaea" stroke="#666" width="184" height="65" name="Judge" rx="3" ry="3" class="actor actor-bottom"></rect><text x="2894" y="1942.5" dominant-baseline="central" alignment-baseline="central" class="actor" style="text-anchor: middle; font-size: 16px; font-weight: 400; font-family: monospace;"><tspan x="2894" dy="0">Step 5: LLM Judge</tspan></text></g><g><rect x="2578" y="1910" fill="#eaeaea" stroke="#666" width="174" height="65" name="LLM" rx="3" ry="3" class="actor actor-bottom"></rect><text x="2665" y="1942.5" dominant-baseline="central" alignment-baseline="central" class="actor" style="text-anchor: middle; font-size: 16px; font-weight: 400; font-family: monospace;"><tspan x="2665" dy="0">Step 4: Chat LLM</tspan></text></g><g><rect x="2376" y="1910" fill="#eaeaea" stroke="#666" width="150" height="65" name="Session" rx="3" ry="3" class="actor actor-bottom"></rect><text x="2451" y="1942.5" dominant-baseline="central" alignment-baseline="central" class="actor" style="text-anchor: middle; font-size: 16px; font-weight: 400; font-family: monospace;"><tspan x="2451" dy="0">Session Store</tspan></text></g><g><rect x="2123" y="1910" fill="#eaeaea" stroke="#666" width="203" height="65" name="Guard" rx="3" ry="3" class="actor actor-bottom"></rect><text x="2224.5" y="1942.5" dominant-baseline="central" alignment-baseline="central" class="actor" style="text-anchor: middle; font-size: 16px; font-weight: 400; font-family: monospace;"><tspan x="2224.5" dy="0">Step 3: Scope Guard</tspan></text></g><g><rect x="1822" y="1910" fill="#eaeaea" stroke="#666" width="251" height="65" name="Vector" rx="3" ry="3" class="actor actor-bottom"></rect><text x="1947.5" y="1942.5" dominant-baseline="central" alignment-baseline="central" class="actor" style="text-anchor: middle; font-size: 16px; font-weight: 400; font-family: monospace;"><tspan x="1947.5" dy="0">Step 2: Vector Retrieval</tspan></text></g><g><rect x="1559" y="1910" fill="#eaeaea" stroke="#666" width="213" height="65" name="PII" rx="3" ry="3" class="actor actor-bottom"></rect><text x="1665.5" y="1942.5" dominant-baseline="central" alignment-baseline="central" class="actor" style="text-anchor: middle; font-size: 16px; font-weight: 400; font-family: monospace;"><tspan x="1665.5" dy="0">Step 1: PII Redactor</tspan></text></g><g><rect x="1125.5" y="1910" fill="#eaeaea" stroke="#666" width="150" height="65" name="UC" rx="3" ry="3" class="actor actor-bottom"></rect><text x="1200.5" y="1942.5" dominant-baseline="central" alignment-baseline="central" class="actor" style="text-anchor: middle; font-size: 16px; font-weight: 400; font-family: monospace;"><tspan x="1200.5" dy="0">ChatUseCase</tspan></text></g><g><rect x="634" y="1910" fill="#eaeaea" stroke="#666" width="203" height="65" name="API" rx="3" ry="3" class="actor actor-bottom"></rect><text x="735.5" y="1942.5" dominant-baseline="central" alignment-baseline="central" class="actor" style="text-anchor: middle; font-size: 16px; font-weight: 400; font-family: monospace;"><tspan x="735.5" dy="0">Routes (POST /chat)</tspan></text></g><g><rect x="400" y="1910" fill="#eaeaea" stroke="#666" width="184" height="65" name="Middleware" rx="3" ry="3" class="actor actor-bottom"></rect><text x="492" y="1942.5" dominant-baseline="central" alignment-baseline="central" class="actor" style="text-anchor: middle; font-size: 16px; font-weight: 400; font-family: monospace;"><tspan x="492" dy="0">TracingMiddleware</tspan></text></g><g><line id="actor10" x1="3238.5" y1="5" x2="3238.5" y2="1910" class="200" stroke-width="0.5px" stroke="#999"></line><g id="root-10"><rect x="3036" y="0" fill="#eaeaea" stroke="#666" width="405" height="65" name="FileLog" rx="3" ry="3" class="actor actor-top"></rect><text x="3238.5" y="32.5" dominant-baseline="central" alignment-baseline="central" class="actor" style="text-anchor: middle; font-size: 16px; font-weight: 400; font-family: monospace;"><tspan x="3238.5" dy="0">RotatingFileHandler (logs/app_trace.log)</tspan></text></g></g><g><line id="actor9" x1="2894" y1="5" x2="2894" y2="1910" class="200" stroke-width="0.5px" stroke="#999"></line><g id="root-9"><rect x="2802" y="0" fill="#eaeaea" stroke="#666" width="184" height="65" name="Judge" rx="3" ry="3" class="actor actor-top"></rect><text x="2894" y="32.5" dominant-baseline="central" alignment-baseline="central" class="actor" style="text-anchor: middle; font-size: 16px; font-weight: 400; font-family: monospace;"><tspan x="2894" dy="0">Step 5: LLM Judge</tspan></text></g></g><g><line id="actor8" x1="2665" y1="5" x2="2665" y2="1910" class="200" stroke-width="0.5px" stroke="#999"></line><g id="root-8"><rect x="2578" y="0" fill="#eaeaea" stroke="#666" width="174" height="65" name="LLM" rx="3" ry="3" class="actor actor-top"></rect><text x="2665" y="32.5" dominant-baseline="central" alignment-baseline="central" class="actor" style="text-anchor: middle; font-size: 16px; font-weight: 400; font-family: monospace;"><tspan x="2665" dy="0">Step 4: Chat LLM</tspan></text></g></g><g><line id="actor7" x1="2451" y1="5" x2="2451" y2="1910" class="200" stroke-width="0.5px" stroke="#999"></line><g id="root-7"><rect x="2376" y="0" fill="#eaeaea" stroke="#666" width="150" height="65" name="Session" rx="3" ry="3" class="actor actor-top"></rect><text x="2451" y="32.5" dominant-baseline="central" alignment-baseline="central" class="actor" style="text-anchor: middle; font-size: 16px; font-weight: 400; font-family: monospace;"><tspan x="2451" dy="0">Session Store</tspan></text></g></g><g><line id="actor6" x1="2224.5" y1="5" x2="2224.5" y2="1910" class="200" stroke-width="0.5px" stroke="#999"></line><g id="root-6"><rect x="2123" y="0" fill="#eaeaea" stroke="#666" width="203" height="65" name="Guard" rx="3" ry="3" class="actor actor-top"></rect><text x="2224.5" y="32.5" dominant-baseline="central" alignment-baseline="central" class="actor" style="text-anchor: middle; font-size: 16px; font-weight: 400; font-family: monospace;"><tspan x="2224.5" dy="0">Step 3: Scope Guard</tspan></text></g></g><g><line id="actor5" x1="1947.5" y1="5" x2="1947.5" y2="1910" class="200" stroke-width="0.5px" stroke="#999"></line><g id="root-5"><rect x="1822" y="0" fill="#eaeaea" stroke="#666" width="251" height="65" name="Vector" rx="3" ry="3" class="actor actor-top"></rect><text x="1947.5" y="32.5" dominant-baseline="central" alignment-baseline="central" class="actor" style="text-anchor: middle; font-size: 16px; font-weight: 400; font-family: monospace;"><tspan x="1947.5" dy="0">Step 2: Vector Retrieval</tspan></text></g></g><g><line id="actor4" x1="1665.5" y1="5" x2="1665.5" y2="1910" class="200" stroke-width="0.5px" stroke="#999"></line><g id="root-4"><rect x="1559" y="0" fill="#eaeaea" stroke="#666" width="213" height="65" name="PII" rx="3" ry="3" class="actor actor-top"></rect><text x="1665.5" y="32.5" dominant-baseline="central" alignment-baseline="central" class="actor" style="text-anchor: middle; font-size: 16px; font-weight: 400; font-family: monospace;"><tspan x="1665.5" dy="0">Step 1: PII Redactor</tspan></text></g></g><g><line id="actor3" x1="1200.5" y1="5" x2="1200.5" y2="1910" class="200" stroke-width="0.5px" stroke="#999"></line><g id="root-3"><rect x="1125.5" y="0" fill="#eaeaea" stroke="#666" width="150" height="65" name="UC" rx="3" ry="3" class="actor actor-top"></rect><text x="1200.5" y="32.5" dominant-baseline="central" alignment-baseline="central" class="actor" style="text-anchor: middle; font-size: 16px; font-weight: 400; font-family: monospace;"><tspan x="1200.5" dy="0">ChatUseCase</tspan></text></g></g><g><line id="actor2" x1="735.5" y1="5" x2="735.5" y2="1910" class="200" stroke-width="0.5px" stroke="#999"></line><g id="root-2"><rect x="634" y="0" fill="#eaeaea" stroke="#666" width="203" height="65" name="API" rx="3" ry="3" class="actor actor-top"></rect><text x="735.5" y="32.5" dominant-baseline="central" alignment-baseline="central" class="actor" style="text-anchor: middle; font-size: 16px; font-weight: 400; font-family: monospace;"><tspan x="735.5" dy="0">Routes (POST /chat)</tspan></text></g></g><g><line id="actor1" x1="492" y1="5" x2="492" y2="1910" class="200" stroke-width="0.5px" stroke="#999"></line><g id="root-1"><rect x="400" y="0" fill="#eaeaea" stroke="#666" width="184" height="65" name="Middleware" rx="3" ry="3" class="actor actor-top"></rect><text x="492" y="32.5" dominant-baseline="central" alignment-baseline="central" class="actor" style="text-anchor: middle; font-size: 16px; font-weight: 400; font-family: monospace;"><tspan x="492" dy="0">TracingMiddleware</tspan></text></g></g><style>#mermaid-1786202300944{font-family:monospace;font-size:16px;fill:#333;}#mermaid-1786202300944 .error-icon{fill:#552222;}#mermaid-1786202300944 .error-text{fill:#552222;stroke:#552222;}#mermaid-1786202300944 .edge-thickness-normal{stroke-width:2px;}#mermaid-1786202300944 .edge-thickness-thick{stroke-width:3.5px;}#mermaid-1786202300944 .edge-pattern-solid{stroke-dasharray:0;}#mermaid-1786202300944 .edge-pattern-dashed{stroke-dasharray:3;}#mermaid-1786202300944 .edge-pattern-dotted{stroke-dasharray:2;}#mermaid-1786202300944 .marker{fill:#333333;stroke:#333333;}#mermaid-1786202300944 .marker.cross{stroke:#333333;}#mermaid-1786202300944 svg{font-family:monospace;font-size:16px;}#mermaid-1786202300944 .actor{stroke:hsl(259.6261682243, 59.7765363128%, 87.9019607843%);fill:#ECECFF;}#mermaid-1786202300944 text.actor&gt;tspan{fill:black;stroke:none;}#mermaid-1786202300944 .actor-line{stroke:grey;}#mermaid-1786202300944 .messageLine0{stroke-width:1.5;stroke-dasharray:none;stroke:#333;}#mermaid-1786202300944 .messageLine1{stroke-width:1.5;stroke-dasharray:2,2;stroke:#333;}#mermaid-1786202300944 #arrowhead path{fill:#333;stroke:#333;}#mermaid-1786202300944 .sequenceNumber{fill:white;}#mermaid-1786202300944 #sequencenumber{fill:#333;}#mermaid-1786202300944 #crosshead path{fill:#333;stroke:#333;}#mermaid-1786202300944 .messageText{fill:#333;stroke:none;}#mermaid-1786202300944 .labelBox{stroke:hsl(259.6261682243, 59.7765363128%, 87.9019607843%);fill:#ECECFF;}#mermaid-1786202300944 .labelText,#mermaid-1786202300944 .labelText&gt;tspan{fill:black;stroke:none;}#mermaid-1786202300944 .loopText,#mermaid-1786202300944 .loopText&gt;tspan{fill:black;stroke:none;}#mermaid-1786202300944 .loopLine{stroke-width:2px;stroke-dasharray:2,2;stroke:hsl(259.6261682243, 59.7765363128%, 87.9019607843%);fill:hsl(259.6261682243, 59.7765363128%, 87.9019607843%);}#mermaid-1786202300944 .note{stroke:#aaaa33;fill:#fff5ad;}#mermaid-1786202300944 .noteText,#mermaid-1786202300944 .noteText&gt;tspan{fill:black;stroke:none;}#mermaid-1786202300944 .activation0{fill:#f4f4f4;stroke:#666;}#mermaid-1786202300944 .activation1{fill:#f4f4f4;stroke:#666;}#mermaid-1786202300944 .activation2{fill:#f4f4f4;stroke:#666;}#mermaid-1786202300944 .actorPopupMenu{position:absolute;}#mermaid-1786202300944 .actorPopupMenuPanel{position:absolute;fill:#ECECFF;box-shadow:0px 8px 16px 0px rgba(0,0,0,0.2);filter:drop-shadow(3px 5px 2px rgb(0 0 0 / 0.4));}#mermaid-1786202300944 .actor-man line{stroke:hsl(259.6261682243, 59.7765363128%, 87.9019607843%);fill:#ECECFF;}#mermaid-1786202300944 .actor-man circle,#mermaid-1786202300944 line{stroke:hsl(259.6261682243, 59.7765363128%, 87.9019607843%);fill:#ECECFF;stroke-width:2px;}#mermaid-1786202300944 :root{--mermaid-font-family:monospace;}</style><g></g><defs><symbol id="computer" width="24" height="24"><path transform="scale(.5)" d="M2 2v13h20v-13h-20zm18 11h-16v-9h16v9zm-10.228 6l.466-1h3.524l.467 1h-4.457zm14.228 3h-24l2-6h2.104l-1.33 4h18.45l-1.297-4h2.073l2 6zm-5-10h-14v-7h14v7z"></path></symbol></defs><defs><symbol id="database" fill-rule="evenodd" clip-rule="evenodd"><path transform="scale(.5)" d="M12.258.001l.256.004.255.005.253.008.251.01.249.012.247.015.246.016.242.019.241.02.239.023.236.024.233.027.231.028.229.031.225.032.223.034.22.036.217.038.214.04.211.041.208.043.205.045.201.046.198.048.194.05.191.051.187.053.183.054.18.056.175.057.172.059.168.06.163.061.16.063.155.064.15.066.074.033.073.033.071.034.07.034.069.035.068.035.067.035.066.035.064.036.064.036.062.036.06.036.06.037.058.037.058.037.055.038.055.038.053.038.052.038.051.039.05.039.048.039.047.039.045.04.044.04.043.04.041.04.04.041.039.041.037.041.036.041.034.041.033.042.032.042.03.042.029.042.027.042.026.043.024.043.023.043.021.043.02.043.018.044.017.043.015.044.013.044.012.044.011.045.009.044.007.045.006.045.004.045.002.045.001.045v17l-.001.045-.002.045-.004.045-.006.045-.007.045-.009.044-.011.045-.012.044-.013.044-.015.044-.017.043-.018.044-.02.043-.021.043-.023.043-.024.043-.026.043-.027.042-.029.042-.03.042-.032.042-.033.042-.034.041-.036.041-.037.041-.039.041-.04.041-.041.04-.043.04-.044.04-.045.04-.047.039-.048.039-.05.039-.051.039-.052.038-.053.038-.055.038-.055.038-.058.037-.058.037-.06.037-.06.036-.062.036-.064.036-.064.036-.066.035-.067.035-.068.035-.069.035-.07.034-.071.034-.073.033-.074.033-.15.066-.155.064-.16.063-.163.061-.168.06-.172.059-.175.057-.18.056-.183.054-.187.053-.191.051-.194.05-.198.048-.201.046-.205.045-.208.043-.211.041-.214.04-.217.038-.22.036-.223.034-.225.032-.229.031-.231.028-.233.027-.236.024-.239.023-.241.02-.242.019-.246.016-.247.015-.249.012-.251.01-.253.008-.255.005-.256.004-.258.001-.258-.001-.256-.004-.255-.005-.253-.008-.251-.01-.249-.012-.247-.015-.245-.016-.243-.019-.241-.02-.238-.023-.236-.024-.234-.027-.231-.028-.228-.031-.226-.032-.223-.034-.22-.036-.217-.038-.214-.04-.211-.041-.208-.043-.204-.045-.201-.046-.198-.048-.195-.05-.19-.051-.187-.053-.184-.054-.179-.056-.176-.057-.172-.059-.167-.06-.164-.061-.159-.063-.155-.064-.151-.066-.074-.033-.072-.033-.072-.034-.07-.034-.069-.035-.068-.035-.067-.035-.066-.035-.064-.036-.063-.036-.062-.036-.061-.036-.06-.037-.058-.037-.057-.037-.056-.038-.055-.038-.053-.038-.052-.038-.051-.039-.049-.039-.049-.039-.046-.039-.046-.04-.044-.04-.043-.04-.041-.04-.04-.041-.039-.041-.037-.041-.036-.041-.034-.041-.033-.042-.032-.042-.03-.042-.029-.042-.027-.042-.026-.043-.024-.043-.023-.043-.021-.043-.02-.043-.018-.044-.017-.043-.015-.044-.013-.044-.012-.044-.011-.045-.009-.044-.007-.045-.006-.045-.004-.045-.002-.045-.001-.045v-17l.001-.045.002-.045.004-.045.006-.045.007-.045.009-.044.011-.045.012-.044.013-.044.015-.044.017-.043.018-.044.02-.043.021-.043.023-.043.024-.043.026-.043.027-.042.029-.042.03-.042.032-.042.033-.042.034-.041.036-.041.037-.041.039-.041.04-.041.041-.04.043-.04.044-.04.046-.04.046-.039.049-.039.049-.039.051-.039.052-.038.053-.038.055-.038.056-.038.057-.037.058-.037.06-.037.061-.036.062-.036.063-.036.064-.036.066-.035.067-.035.068-.035.069-.035.07-.034.072-.034.072-.033.074-.033.151-.066.155-.064.159-.063.164-.061.167-.06.172-.059.176-.057.179-.056.184-.054.187-.053.19-.051.195-.05.198-.048.201-.046.204-.045.208-.043.211-.041.214-.04.217-.038.22-.036.223-.034.226-.032.228-.031.231-.028.234-.027.236-.024.238-.023.241-.02.243-.019.245-.016.247-.015.249-.012.251-.01.253-.008.255-.005.256-.004.258-.001.258.001zm-9.258 20.499v.01l.001.021.003.021.004.022.005.021.006.022.007.022.009.023.01.022.011.023.012.023.013.023.015.023.016.024.017.023.018.024.019.024.021.024.022.025.023.024.024.025.052.049.056.05.061.051.066.051.07.051.075.051.079.052.084.052.088.052.092.052.097.052.102.051.105.052.11.052.114.051.119.051.123.051.127.05.131.05.135.05.139.048.144.049.147.047.152.047.155.047.16.045.163.045.167.043.171.043.176.041.178.041.183.039.187.039.19.037.194.035.197.035.202.033.204.031.209.03.212.029.216.027.219.025.222.024.226.021.23.02.233.018.236.016.24.015.243.012.246.01.249.008.253.005.256.004.259.001.26-.001.257-.004.254-.005.25-.008.247-.011.244-.012.241-.014.237-.016.233-.018.231-.021.226-.021.224-.024.22-.026.216-.027.212-.028.21-.031.205-.031.202-.034.198-.034.194-.036.191-.037.187-.039.183-.04.179-.04.175-.042.172-.043.168-.044.163-.045.16-.046.155-.046.152-.047.148-.048.143-.049.139-.049.136-.05.131-.05.126-.05.123-.051.118-.052.114-.051.11-.052.106-.052.101-.052.096-.052.092-.052.088-.053.083-.051.079-.052.074-.052.07-.051.065-.051.06-.051.056-.05.051-.05.023-.024.023-.025.021-.024.02-.024.019-.024.018-.024.017-.024.015-.023.014-.024.013-.023.012-.023.01-.023.01-.022.008-.022.006-.022.006-.022.004-.022.004-.021.001-.021.001-.021v-4.127l-.077.055-.08.053-.083.054-.085.053-.087.052-.09.052-.093.051-.095.05-.097.05-.1.049-.102.049-.105.048-.106.047-.109.047-.111.046-.114.045-.115.045-.118.044-.12.043-.122.042-.124.042-.126.041-.128.04-.13.04-.132.038-.134.038-.135.037-.138.037-.139.035-.142.035-.143.034-.144.033-.147.032-.148.031-.15.03-.151.03-.153.029-.154.027-.156.027-.158.026-.159.025-.161.024-.162.023-.163.022-.165.021-.166.02-.167.019-.169.018-.169.017-.171.016-.173.015-.173.014-.175.013-.175.012-.177.011-.178.01-.179.008-.179.008-.181.006-.182.005-.182.004-.184.003-.184.002h-.37l-.184-.002-.184-.003-.182-.004-.182-.005-.181-.006-.179-.008-.179-.008-.178-.01-.176-.011-.176-.012-.175-.013-.173-.014-.172-.015-.171-.016-.17-.017-.169-.018-.167-.019-.166-.02-.165-.021-.163-.022-.162-.023-.161-.024-.159-.025-.157-.026-.156-.027-.155-.027-.153-.029-.151-.03-.15-.03-.148-.031-.146-.032-.145-.033-.143-.034-.141-.035-.14-.035-.137-.037-.136-.037-.134-.038-.132-.038-.13-.04-.128-.04-.126-.041-.124-.042-.122-.042-.12-.044-.117-.043-.116-.045-.113-.045-.112-.046-.109-.047-.106-.047-.105-.048-.102-.049-.1-.049-.097-.05-.095-.05-.093-.052-.09-.051-.087-.052-.085-.053-.083-.054-.08-.054-.077-.054v4.127zm0-5.654v.011l.001.021.003.021.004.021.005.022.006.022.007.022.009.022.01.022.011.023.012.023.013.023.015.024.016.023.017.024.018.024.019.024.021.024.022.024.023.025.024.024.052.05.056.05.061.05.066.051.07.051.075.052.079.051.084.052.088.052.092.052.097.052.102.052.105.052.11.051.114.051.119.052.123.05.127.051.131.05.135.049.139.049.144.048.147.048.152.047.155.046.16.045.163.045.167.044.171.042.176.042.178.04.183.04.187.038.19.037.194.036.197.034.202.033.204.032.209.03.212.028.216.027.219.025.222.024.226.022.23.02.233.018.236.016.24.014.243.012.246.01.249.008.253.006.256.003.259.001.26-.001.257-.003.254-.006.25-.008.247-.01.244-.012.241-.015.237-.016.233-.018.231-.02.226-.022.224-.024.22-.025.216-.027.212-.029.21-.03.205-.032.202-.033.198-.035.194-.036.191-.037.187-.039.183-.039.179-.041.175-.042.172-.043.168-.044.163-.045.16-.045.155-.047.152-.047.148-.048.143-.048.139-.05.136-.049.131-.05.126-.051.123-.051.118-.051.114-.052.11-.052.106-.052.101-.052.096-.052.092-.052.088-.052.083-.052.079-.052.074-.051.07-.052.065-.051.06-.05.056-.051.051-.049.023-.025.023-.024.021-.025.02-.024.019-.024.018-.024.017-.024.015-.023.014-.023.013-.024.012-.022.01-.023.01-.023.008-.022.006-.022.006-.022.004-.021.004-.022.001-.021.001-.021v-4.139l-.077.054-.08.054-.083.054-.085.052-.087.053-.09.051-.093.051-.095.051-.097.05-.1.049-.102.049-.105.048-.106.047-.109.047-.111.046-.114.045-.115.044-.118.044-.12.044-.122.042-.124.042-.126.041-.128.04-.13.039-.132.039-.134.038-.135.037-.138.036-.139.036-.142.035-.143.033-.144.033-.147.033-.148.031-.15.03-.151.03-.153.028-.154.028-.156.027-.158.026-.159.025-.161.024-.162.023-.163.022-.165.021-.166.02-.167.019-.169.018-.169.017-.171.016-.173.015-.173.014-.175.013-.175.012-.177.011-.178.009-.179.009-.179.007-.181.007-.182.005-.182.004-.184.003-.184.002h-.37l-.184-.002-.184-.003-.182-.004-.182-.005-.181-.007-.179-.007-.179-.009-.178-.009-.176-.011-.176-.012-.175-.013-.173-.014-.172-.015-.171-.016-.17-.017-.169-.018-.167-.019-.166-.02-.165-.021-.163-.022-.162-.023-.161-.024-.159-.025-.157-.026-.156-.027-.155-.028-.153-.028-.151-.03-.15-.03-.148-.031-.146-.033-.145-.033-.143-.033-.141-.035-.14-.036-.137-.036-.136-.037-.134-.038-.132-.039-.13-.039-.128-.04-.126-.041-.124-.042-.122-.043-.12-.043-.117-.044-.116-.044-.113-.046-.112-.046-.109-.046-.106-.047-.105-.048-.102-.049-.1-.049-.097-.05-.095-.051-.093-.051-.09-.051-.087-.053-.085-.052-.083-.054-.08-.054-.077-.054v4.139zm0-5.666v.011l.001.02.003.022.004.021.005.022.006.021.007.022.009.023.01.022.011.023.012.023.013.023.015.023.016.024.017.024.018.023.019.024.021.025.022.024.023.024.024.025.052.05.056.05.061.05.066.051.07.051.075.052.079.051.084.052.088.052.092.052.097.052.102.052.105.051.11.052.114.051.119.051.123.051.127.05.131.05.135.05.139.049.144.048.147.048.152.047.155.046.16.045.163.045.167.043.171.043.176.042.178.04.183.04.187.038.19.037.194.036.197.034.202.033.204.032.209.03.212.028.216.027.219.025.222.024.226.021.23.02.233.018.236.017.24.014.243.012.246.01.249.008.253.006.256.003.259.001.26-.001.257-.003.254-.006.25-.008.247-.01.244-.013.241-.014.237-.016.233-.018.231-.02.226-.022.224-.024.22-.025.216-.027.212-.029.21-.03.205-.032.202-.033.198-.035.194-.036.191-.037.187-.039.183-.039.179-.041.175-.042.172-.043.168-.044.163-.045.16-.045.155-.047.152-.047.148-.048.143-.049.139-.049.136-.049.131-.051.126-.05.123-.051.118-.052.114-.051.11-.052.106-.052.101-.052.096-.052.092-.052.088-.052.083-.052.079-.052.074-.052.07-.051.065-.051.06-.051.056-.05.051-.049.023-.025.023-.025.021-.024.02-.024.019-.024.018-.024.017-.024.015-.023.014-.024.013-.023.012-.023.01-.022.01-.023.008-.022.006-.022.006-.022.004-.022.004-.021.001-.021.001-.021v-4.153l-.077.054-.08.054-.083.053-.085.053-.087.053-.09.051-.093.051-.095.051-.097.05-.1.049-.102.048-.105.048-.106.048-.109.046-.111.046-.114.046-.115.044-.118.044-.12.043-.122.043-.124.042-.126.041-.128.04-.13.039-.132.039-.134.038-.135.037-.138.036-.139.036-.142.034-.143.034-.144.033-.147.032-.148.032-.15.03-.151.03-.153.028-.154.028-.156.027-.158.026-.159.024-.161.024-.162.023-.163.023-.165.021-.166.02-.167.019-.169.018-.169.017-.171.016-.173.015-.173.014-.175.013-.175.012-.177.01-.178.01-.179.009-.179.007-.181.006-.182.006-.182.004-.184.003-.184.001-.185.001-.185-.001-.184-.001-.184-.003-.182-.004-.182-.006-.181-.006-.179-.007-.179-.009-.178-.01-.176-.01-.176-.012-.175-.013-.173-.014-.172-.015-.171-.016-.17-.017-.169-.018-.167-.019-.166-.02-.165-.021-.163-.023-.162-.023-.161-.024-.159-.024-.157-.026-.156-.027-.155-.028-.153-.028-.151-.03-.15-.03-.148-.032-.146-.032-.145-.033-.143-.034-.141-.034-.14-.036-.137-.036-.136-.037-.134-.038-.132-.039-.13-.039-.128-.041-.126-.041-.124-.041-.122-.043-.12-.043-.117-.044-.116-.044-.113-.046-.112-.046-.109-.046-.106-.048-.105-.048-.102-.048-.1-.05-.097-.049-.095-.051-.093-.051-.09-.052-.087-.052-.085-.053-.083-.053-.08-.054-.077-.054v4.153zm8.74-8.179l-.257.004-.254.005-.25.008-.247.011-.244.012-.241.014-.237.016-.233.018-.231.021-.226.022-.224.023-.22.026-.216.027-.212.028-.21.031-.205.032-.202.033-.198.034-.194.036-.191.038-.187.038-.183.04-.179.041-.175.042-.172.043-.168.043-.163.045-.16.046-.155.046-.152.048-.148.048-.143.048-.139.049-.136.05-.131.05-.126.051-.123.051-.118.051-.114.052-.11.052-.106.052-.101.052-.096.052-.092.052-.088.052-.083.052-.079.052-.074.051-.07.052-.065.051-.06.05-.056.05-.051.05-.023.025-.023.024-.021.024-.02.025-.019.024-.018.024-.017.023-.015.024-.014.023-.013.023-.012.023-.01.023-.01.022-.008.022-.006.023-.006.021-.004.022-.004.021-.001.021-.001.021.001.021.001.021.004.021.004.022.006.021.006.023.008.022.01.022.01.023.012.023.013.023.014.023.015.024.017.023.018.024.019.024.02.025.021.024.023.024.023.025.051.05.056.05.06.05.065.051.07.052.074.051.079.052.083.052.088.052.092.052.096.052.101.052.106.052.11.052.114.052.118.051.123.051.126.051.131.05.136.05.139.049.143.048.148.048.152.048.155.046.16.046.163.045.168.043.172.043.175.042.179.041.183.04.187.038.191.038.194.036.198.034.202.033.205.032.21.031.212.028.216.027.22.026.224.023.226.022.231.021.233.018.237.016.241.014.244.012.247.011.25.008.254.005.257.004.26.001.26-.001.257-.004.254-.005.25-.008.247-.011.244-.012.241-.014.237-.016.233-.018.231-.021.226-.022.224-.023.22-.026.216-.027.212-.028.21-.031.205-.032.202-.033.198-.034.194-.036.191-.038.187-.038.183-.04.179-.041.175-.042.172-.043.168-.043.163-.045.16-.046.155-.046.152-.048.148-.048.143-.048.139-.049.136-.05.131-.05.126-.051.123-.051.118-.051.114-.052.11-.052.106-.052.101-.052.096-.052.092-.052.088-.052.083-.052.079-.052.074-.051.07-.052.065-.051.06-.05.056-.05.051-.05.023-.025.023-.024.021-.024.02-.025.019-.024.018-.024.017-.023.015-.024.014-.023.013-.023.012-.023.01-.023.01-.022.008-.022.006-.023.006-.021.004-.022.004-.021.001-.021.001-.021-.001-.021-.001-.021-.004-.021-.004-.022-.006-.021-.006-.023-.008-.022-.01-.022-.01-.023-.012-.023-.013-.023-.014-.023-.015-.024-.017-.023-.018-.024-.019-.024-.02-.025-.021-.024-.023-.024-.023-.025-.051-.05-.056-.05-.06-.05-.065-.051-.07-.052-.074-.051-.079-.052-.083-.052-.088-.052-.092-.052-.096-.052-.101-.052-.106-.052-.11-.052-.114-.052-.118-.051-.123-.051-.126-.051-.131-.05-.136-.05-.139-.049-.143-.048-.148-.048-.152-.048-.155-.046-.16-.046-.163-.045-.168-.043-.172-.043-.175-.042-.179-.041-.183-.04-.187-.038-.191-.038-.194-.036-.198-.034-.202-.033-.205-.032-.21-.031-.212-.028-.216-.027-.22-.026-.224-.023-.226-.022-.231-.021-.233-.018-.237-.016-.241-.014-.244-.012-.247-.011-.25-.008-.254-.005-.257-.004-.26-.001-.26.001z"></path></symbol></defs><defs><symbol id="clock" width="24" height="24"><path transform="scale(.5)" d="M12 2c5.514 0 10 4.486 10 10s-4.486 10-10 10-10-4.486-10-10 4.486-10 10-10zm0-2c-6.627 0-12 5.373-12 12s5.373 12 12 12 12-5.373 12-12-5.373-12-12-12zm5.848 12.459c.202.038.202.333.001.372-1.907.361-6.045 1.111-6.547 1.111-.719 0-1.301-.582-1.301-1.301 0-.512.77-5.447 1.125-7.445.034-.192.312-.181.343.014l.985 6.238 5.394 1.011z"></path></symbol></defs><defs><marker id="arrowhead" refX="7.9" refY="5" markerUnits="userSpaceOnUse" markerWidth="12" markerHeight="12" orient="auto"><path d="M 0 0 L 10 5 L 0 10 z"></path></marker></defs><defs><marker id="crosshead" markerWidth="15" markerHeight="8" orient="auto" refX="4" refY="4.5"><path fill="none" stroke="#000000" stroke-width="1pt" d="M 1,2 L 6,7 M 6,2 L 1,7" style="stroke-dasharray: 0, 0;"></path></marker></defs><defs><marker id="filled-head" refX="15.5" refY="7" markerWidth="20" markerHeight="28" orient="auto"><path d="M 18,7 L9,13 L14,7 L9,1 Z"></path></marker></defs><defs><marker id="sequencenumber" refX="15" refY="15" markerWidth="60" markerHeight="40" orient="auto"><circle cx="15" cy="15" r="6"></circle></marker></defs><g><rect x="1175.5" y="317" fill="#EDF2AE" stroke="#666" width="515" height="39" rx="0" ry="0" class="note"></rect><text x="1433" y="322" text-anchor="middle" dominant-baseline="middle" alignment-baseline="middle" class="noteText" dy="1em" style="font-family: monospace; font-size: 16px; font-weight: 400;"><tspan x="1433">Step 1: PII Redaction</tspan></text></g><g><rect x="1175.5" y="492" fill="#EDF2AE" stroke="#666" width="797" height="39" rx="0" ry="0" class="note"></rect><text x="1574" y="497" text-anchor="middle" dominant-baseline="middle" alignment-baseline="middle" class="noteText" dy="1em" style="font-family: monospace; font-size: 16px; font-weight: 400;"><tspan x="1574">Step 2: Vector Retrieval &amp; Relevance</tspan></text></g><g><rect x="1175.5" y="667" fill="#EDF2AE" stroke="#666" width="1074" height="39" rx="0" ry="0" class="note"></rect><text x="1713" y="672" text-anchor="middle" dominant-baseline="middle" alignment-baseline="middle" class="noteText" dy="1em" style="font-family: monospace; font-size: 16px; font-weight: 400;"><tspan x="1713">Step 3: Out-of-Scope Guardrail</tspan></text></g><g><line x1="64" y1="764" x2="2462" y2="764" class="loopLine"></line><line x1="2462" y1="764" x2="2462" y2="1094" class="loopLine"></line><line x1="64" y1="1094" x2="2462" y2="1094" class="loopLine"></line><line x1="64" y1="764" x2="64" y2="1094" class="loopLine"></line><line x1="64" y1="1006" x2="2462" y2="1006" class="loopLine" style="stroke-dasharray: 3, 3;"></line><polygon points="64,764 114,764 114,777 105.6,784 64,784" class="labelBox"></polygon><text x="89" y="777" text-anchor="middle" dominant-baseline="middle" alignment-baseline="middle" class="labelText" style="font-family: monospace; font-size: 16px; font-weight: 400;">alt</text><text x="1288" y="782" text-anchor="middle" class="loopText" style="font-family: monospace; font-size: 16px; font-weight: 400;"><tspan x="1288">[Out of Scope]</tspan></text><text x="1263" y="1024" text-anchor="middle" class="loopText" style="font-family: monospace; font-size: 16px; font-weight: 400;">[In Scope]</text></g><g><rect x="1175.5" y="1134" fill="#EDF2AE" stroke="#666" width="1514.5" height="39" rx="0" ry="0" class="note"></rect><text x="1933" y="1139" text-anchor="middle" dominant-baseline="middle" alignment-baseline="middle" class="noteText" dy="1em" style="font-family: monospace; font-size: 16px; font-weight: 400;"><tspan x="1933">Step 4: Chat Response Generation</tspan></text></g><g><rect x="1175.5" y="1405" fill="#EDF2AE" stroke="#666" width="1743.5" height="39" rx="0" ry="0" class="note"></rect><text x="2047" y="1410" text-anchor="middle" dominant-baseline="middle" alignment-baseline="middle" class="noteText" dy="1em" style="font-family: monospace; font-size: 16px; font-weight: 400;"><tspan x="2047">Step 5: Grounding Evaluation</tspan></text></g><g><line x1="1189.5" y1="1454" x2="2905" y2="1454" class="loopLine"></line><line x1="2905" y1="1454" x2="2905" y2="1688" class="loopLine"></line><line x1="1189.5" y1="1688" x2="2905" y2="1688" class="loopLine"></line><line x1="1189.5" y1="1454" x2="1189.5" y2="1688" class="loopLine"></line><line x1="1189.5" y1="1552" x2="2905" y2="1552" class="loopLine" style="stroke-dasharray: 3, 3;"></line><polygon points="1189.5,1454 1239.5,1454 1239.5,1467 1231.1,1474 1189.5,1474" class="labelBox"></polygon><text x="1215" y="1467" text-anchor="middle" dominant-baseline="middle" alignment-baseline="middle" class="labelText" style="font-family: monospace; font-size: 16px; font-weight: 400;">alt</text><text x="2072.25" y="1472" text-anchor="middle" class="loopText" style="font-family: monospace; font-size: 16px; font-weight: 400;"><tspan x="2072.25">[async_eval is True]</tspan></text><text x="2047.25" y="1570" text-anchor="middle" class="loopText" style="font-family: monospace; font-size: 16px; font-weight: 400;">[async_eval is False]</text></g><line id="actor0" x1="75" y1="80" x2="75" y2="1910" class="200" stroke-width="0.5px" stroke="#999"></line><g class="actor-man actor-top" name="Client"><line id="actor-man-torso0" x1="75" y1="25" x2="75" y2="45"></line><line id="actor-man-arms0" x1="57" y1="33" x2="93" y2="33"></line><line x1="57" y1="60" x2="75" y2="45"></line><line x1="75" y1="45" x2="91" y2="60"></line><circle cx="75" cy="10" r="15" width="150" height="65"></circle><text x="75" y="67.5" dominant-baseline="central" alignment-baseline="central" class="actor" style="text-anchor: middle; font-size: 16px; font-weight: 400; font-family: monospace;"><tspan x="75" dy="0">Client / User</tspan></text></g><text x="282" y="80" text-anchor="middle" dominant-baseline="middle" alignment-baseline="middle" class="messageText" dy="1em" style="font-family: monospace; font-size: 16px; font-weight: 400;">POST /chat {"session_id", "message"}</text><line x1="76" y1="113" x2="488" y2="113" class="messageLine0" stroke-width="2" stroke="none" marker-end="url(#arrowhead)" marker-start="url(#sequencenumber)" style="fill: none;"></line><text x="76" y="117" font-family="sans-serif" font-size="12px" text-anchor="middle" class="sequenceNumber">1</text><text x="493" y="128" text-anchor="middle" dominant-baseline="middle" alignment-baseline="middle" class="messageText" dy="1em" style="font-family: monospace; font-size: 16px; font-weight: 400;">init_trace(request_id, session_id)</text><path d="M 493,161 C 553,151 553,191 493,181" class="messageLine0" stroke-width="2" stroke="none" marker-end="url(#arrowhead)" marker-start="url(#sequencenumber)" style="fill: none;"></path><text x="493" y="165" font-family="sans-serif" font-size="12px" text-anchor="middle" class="sequenceNumber">2</text><text x="612" y="206" text-anchor="middle" dominant-baseline="middle" alignment-baseline="middle" class="messageText" dy="1em" style="font-family: monospace; font-size: 16px; font-weight: 400;">dispatch request</text><line x1="493" y1="239" x2="731.5" y2="239" class="messageLine0" stroke-width="2" stroke="none" marker-end="url(#arrowhead)" marker-start="url(#sequencenumber)" style="fill: none;"></line><text x="493" y="243" font-family="sans-serif" font-size="12px" text-anchor="middle" class="sequenceNumber">3</text><text x="967" y="254" text-anchor="middle" dominant-baseline="middle" alignment-baseline="middle" class="messageText" dy="1em" style="font-family: monospace; font-size: 16px; font-weight: 400;">execute(request)</text><line x1="736.5" y1="287" x2="1196.5" y2="287" class="messageLine0" stroke-width="2" stroke="none" marker-end="url(#arrowhead)" marker-start="url(#sequencenumber)" style="fill: none;"></line><text x="736.5" y="291" font-family="sans-serif" font-size="12px" text-anchor="middle" class="sequenceNumber">4</text><text x="1432" y="371" text-anchor="middle" dominant-baseline="middle" alignment-baseline="middle" class="messageText" dy="1em" style="font-family: monospace; font-size: 16px; font-weight: 400;">redact(message)</text><line x1="1201.5" y1="404" x2="1661.5" y2="404" class="messageLine0" stroke-width="2" stroke="none" marker-end="url(#arrowhead)" marker-start="url(#sequencenumber)" style="fill: none;"></line><text x="1201.5" y="408" font-family="sans-serif" font-size="12px" text-anchor="middle" class="sequenceNumber">5</text><text x="1435" y="419" text-anchor="middle" dominant-baseline="middle" alignment-baseline="middle" class="messageText" dy="1em" style="font-family: monospace; font-size: 16px; font-weight: 400;">PIIRedactionResult (redacted_text, count)</text><line x1="1664.5" y1="452" x2="1204.5" y2="452" class="messageLine1" stroke-width="2" stroke="none" marker-end="url(#arrowhead)" marker-start="url(#sequencenumber)" style="stroke-dasharray: 3, 3; fill: none;"></line><text x="1664.5" y="456" font-family="sans-serif" font-size="12px" text-anchor="middle" class="sequenceNumber">6</text><text x="1573" y="546" text-anchor="middle" dominant-baseline="middle" alignment-baseline="middle" class="messageText" dy="1em" style="font-family: monospace; font-size: 16px; font-weight: 400;">search(redacted_text, top_k=3)</text><line x1="1201.5" y1="579" x2="1943.5" y2="579" class="messageLine0" stroke-width="2" stroke="none" marker-end="url(#arrowhead)" marker-start="url(#sequencenumber)" style="fill: none;"></line><text x="1201.5" y="583" font-family="sans-serif" font-size="12px" text-anchor="middle" class="sequenceNumber">7</text><text x="1576" y="594" text-anchor="middle" dominant-baseline="middle" alignment-baseline="middle" class="messageText" dy="1em" style="font-family: monospace; font-size: 16px; font-weight: 400;">RetrievalResult (chunks, relevance_score)</text><line x1="1946.5" y1="627" x2="1204.5" y2="627" class="messageLine1" stroke-width="2" stroke="none" marker-end="url(#arrowhead)" marker-start="url(#sequencenumber)" style="stroke-dasharray: 3, 3; fill: none;"></line><text x="1946.5" y="631" font-family="sans-serif" font-size="12px" text-anchor="middle" class="sequenceNumber">8</text><text x="1711" y="721" text-anchor="middle" dominant-baseline="middle" alignment-baseline="middle" class="messageText" dy="1em" style="font-family: monospace; font-size: 16px; font-weight: 400;">is_in_scope(redacted_text, retrieval_result)</text><line x1="1201.5" y1="754" x2="2220.5" y2="754" class="messageLine0" stroke-width="2" stroke="none" marker-end="url(#arrowhead)" marker-start="url(#sequencenumber)" style="fill: none;"></line><text x="1201.5" y="758" font-family="sans-serif" font-size="12px" text-anchor="middle" class="sequenceNumber">9</text><text x="1714" y="814" text-anchor="middle" dominant-baseline="middle" alignment-baseline="middle" class="messageText" dy="1em" style="font-family: monospace; font-size: 16px; font-weight: 400;">(False, refusal_message)</text><line x1="2223.5" y1="847" x2="1204.5" y2="847" class="messageLine1" stroke-width="2" stroke="none" marker-end="url(#arrowhead)" marker-start="url(#sequencenumber)" style="stroke-dasharray: 3, 3; fill: none;"></line><text x="2223.5" y="851" font-family="sans-serif" font-size="12px" text-anchor="middle" class="sequenceNumber">10</text><text x="1824" y="862" text-anchor="middle" dominant-baseline="middle" alignment-baseline="middle" class="messageText" dy="1em" style="font-family: monospace; font-size: 16px; font-weight: 400;">save refusal interaction</text><line x1="1201.5" y1="895" x2="2447" y2="895" class="messageLine0" stroke-width="2" stroke="none" marker-end="url(#arrowhead)" marker-start="url(#sequencenumber)" style="fill: none;"></line><text x="1201.5" y="899" font-family="sans-serif" font-size="12px" text-anchor="middle" class="sequenceNumber">11</text><text x="970" y="910" text-anchor="middle" dominant-baseline="middle" alignment-baseline="middle" class="messageText" dy="1em" style="font-family: monospace; font-size: 16px; font-weight: 400;">ChatResponse (refusal_message, trace)</text><line x1="1199.5" y1="943" x2="739.5" y2="943" class="messageLine1" stroke-width="2" stroke="none" marker-end="url(#arrowhead)" marker-start="url(#sequencenumber)" style="stroke-dasharray: 3, 3; fill: none;"></line><text x="1199.5" y="947" font-family="sans-serif" font-size="12px" text-anchor="middle" class="sequenceNumber">12</text><text x="407" y="958" text-anchor="middle" dominant-baseline="middle" alignment-baseline="middle" class="messageText" dy="1em" style="font-family: monospace; font-size: 16px; font-weight: 400;">HTTP 200 Refusal Response</text><line x1="734.5" y1="991" x2="79" y2="991" class="messageLine1" stroke-width="2" stroke="none" marker-end="url(#arrowhead)" marker-start="url(#sequencenumber)" style="stroke-dasharray: 3, 3; fill: none;"></line><text x="734.5" y="995" font-family="sans-serif" font-size="12px" text-anchor="middle" class="sequenceNumber">13</text><text x="1714" y="1051" text-anchor="middle" dominant-baseline="middle" alignment-baseline="middle" class="messageText" dy="1em" style="font-family: monospace; font-size: 16px; font-weight: 400;">(True, None)</text><line x1="2223.5" y1="1084" x2="1204.5" y2="1084" class="messageLine1" stroke-width="2" stroke="none" marker-end="url(#arrowhead)" marker-start="url(#sequencenumber)" style="stroke-dasharray: 3, 3; fill: none;"></line><text x="2223.5" y="1088" font-family="sans-serif" font-size="12px" text-anchor="middle" class="sequenceNumber">14</text><text x="1824" y="1188" text-anchor="middle" dominant-baseline="middle" alignment-baseline="middle" class="messageText" dy="1em" style="font-family: monospace; font-size: 16px; font-weight: 400;">get_history(session_id)</text><line x1="1201.5" y1="1221" x2="2447" y2="1221" class="messageLine0" stroke-width="2" stroke="none" marker-end="url(#arrowhead)" marker-start="url(#sequencenumber)" style="fill: none;"></line><text x="1201.5" y="1225" font-family="sans-serif" font-size="12px" text-anchor="middle" class="sequenceNumber">15</text><text x="1827" y="1236" text-anchor="middle" dominant-baseline="middle" alignment-baseline="middle" class="messageText" dy="1em" style="font-family: monospace; font-size: 16px; font-weight: 400;">conversation history</text><line x1="2450" y1="1269" x2="1204.5" y2="1269" class="messageLine1" stroke-width="2" stroke="none" marker-end="url(#arrowhead)" marker-start="url(#sequencenumber)" style="stroke-dasharray: 3, 3; fill: none;"></line><text x="2450" y="1273" font-family="sans-serif" font-size="12px" text-anchor="middle" class="sequenceNumber">16</text><text x="1931" y="1284" text-anchor="middle" dominant-baseline="middle" alignment-baseline="middle" class="messageText" dy="1em" style="font-family: monospace; font-size: 16px; font-weight: 400;">generate_response(messages, context_chunks)</text><line x1="1201.5" y1="1317" x2="2661" y2="1317" class="messageLine0" stroke-width="2" stroke="none" marker-end="url(#arrowhead)" marker-start="url(#sequencenumber)" style="fill: none;"></line><text x="1201.5" y="1321" font-family="sans-serif" font-size="12px" text-anchor="middle" class="sequenceNumber">17</text><text x="1934" y="1332" text-anchor="middle" dominant-baseline="middle" alignment-baseline="middle" class="messageText" dy="1em" style="font-family: monospace; font-size: 16px; font-weight: 400;">LLMResponse (content, usage_tokens)</text><line x1="2664" y1="1365" x2="1204.5" y2="1365" class="messageLine1" stroke-width="2" stroke="none" marker-end="url(#arrowhead)" marker-start="url(#sequencenumber)" style="stroke-dasharray: 3, 3; fill: none;"></line><text x="2664" y="1369" font-family="sans-serif" font-size="12px" text-anchor="middle" class="sequenceNumber">18</text><text x="2046" y="1504" text-anchor="middle" dominant-baseline="middle" alignment-baseline="middle" class="messageText" dy="1em" style="font-family: monospace; font-size: 16px; font-weight: 400;">submit _evaluate_background(...)</text><line x1="1201.5" y1="1537" x2="2890" y2="1537" class="messageLine0" stroke-width="2" stroke="none" marker-end="url(#arrowhead)" marker-start="url(#sequencenumber)" style="fill: none;"></line><text x="1201.5" y="1541" font-family="sans-serif" font-size="12px" text-anchor="middle" class="sequenceNumber">19</text><text x="2046" y="1597" text-anchor="middle" dominant-baseline="middle" alignment-baseline="middle" class="messageText" dy="1em" style="font-family: monospace; font-size: 16px; font-weight: 400;">evaluate_grounding(q, ctx, ans)</text><line x1="1201.5" y1="1630" x2="2890" y2="1630" class="messageLine0" stroke-width="2" stroke="none" marker-end="url(#arrowhead)" marker-start="url(#sequencenumber)" style="fill: none;"></line><text x="1201.5" y="1634" font-family="sans-serif" font-size="12px" text-anchor="middle" class="sequenceNumber">20</text><text x="2049" y="1645" text-anchor="middle" dominant-baseline="middle" alignment-baseline="middle" class="messageText" dy="1em" style="font-family: monospace; font-size: 16px; font-weight: 400;">GroundingEvaluation (scores, reasoning, tokens)</text><line x1="2893" y1="1678" x2="1204.5" y2="1678" class="messageLine1" stroke-width="2" stroke="none" marker-end="url(#arrowhead)" marker-start="url(#sequencenumber)" style="stroke-dasharray: 3, 3; fill: none;"></line><text x="2893" y="1682" font-family="sans-serif" font-size="12px" text-anchor="middle" class="sequenceNumber">21</text><text x="1824" y="1713" text-anchor="middle" dominant-baseline="middle" alignment-baseline="middle" class="messageText" dy="1em" style="font-family: monospace; font-size: 16px; font-weight: 400;">add_message(user &amp; assistant)</text><line x1="1201.5" y1="1746" x2="2447" y2="1746" class="messageLine0" stroke-width="2" stroke="none" marker-end="url(#arrowhead)" marker-start="url(#sequencenumber)" style="fill: none;"></line><text x="1201.5" y="1750" font-family="sans-serif" font-size="12px" text-anchor="middle" class="sequenceNumber">22</text><text x="970" y="1761" text-anchor="middle" dominant-baseline="middle" alignment-baseline="middle" class="messageText" dy="1em" style="font-family: monospace; font-size: 16px; font-weight: 400;">ChatResponse (response, typed_step_trace)</text><line x1="1199.5" y1="1794" x2="739.5" y2="1794" class="messageLine1" stroke-width="2" stroke="none" marker-end="url(#arrowhead)" marker-start="url(#sequencenumber)" style="stroke-dasharray: 3, 3; fill: none;"></line><text x="1199.5" y="1798" font-family="sans-serif" font-size="12px" text-anchor="middle" class="sequenceNumber">23</text><text x="407" y="1809" text-anchor="middle" dominant-baseline="middle" alignment-baseline="middle" class="messageText" dy="1em" style="font-family: monospace; font-size: 16px; font-weight: 400;">HTTP 200 OK Response JSON</text><line x1="734.5" y1="1842" x2="79" y2="1842" class="messageLine1" stroke-width="2" stroke="none" marker-end="url(#arrowhead)" marker-start="url(#sequencenumber)" style="stroke-dasharray: 3, 3; fill: none;"></line><text x="734.5" y="1846" font-family="sans-serif" font-size="12px" text-anchor="middle" class="sequenceNumber">24</text><text x="1864" y="1857" text-anchor="middle" dominant-baseline="middle" alignment-baseline="middle" class="messageText" dy="1em" style="font-family: monospace; font-size: 16px; font-weight: 400;">emit_trace_log() to logs/app_trace.log &amp; stdout</text><line x1="493" y1="1890" x2="3234.5" y2="1890" class="messageLine0" stroke-width="2" stroke="none" marker-end="url(#arrowhead)" marker-start="url(#sequencenumber)" style="fill: none;"></line><text x="493" y="1894" font-family="sans-serif" font-size="12px" text-anchor="middle" class="sequenceNumber">25</text><g class="actor-man actor-bottom" name="Client"><line id="actor-man-torso10" x1="75" y1="1935" x2="75" y2="1955"></line><line id="actor-man-arms10" x1="57" y1="1943" x2="93" y2="1943"></line><line x1="57" y1="1970" x2="75" y2="1955"></line><line x1="75" y1="1955" x2="91" y2="1970"></line><circle cx="75" cy="1920" r="15" width="150" height="65"></circle><text x="75" y="1977.5" dominant-baseline="central" alignment-baseline="central" class="actor" style="text-anchor: middle; font-size: 16px; font-weight: 400; font-family: monospace;"><tspan x="75" dy="0">Client / User</tspan></text></g></svg>